:FULLY-SPECIFIED
:FORCE-ALL-JOINTS-BE-3DOF
:DEGREES
544
root 7.52525 14.7941 -3.8658 -178.393 54.5412 178.055
lfemur -29.4284 -5.84585 -20.4519
ltibia 77.1169 -0 0
lfoot -35.6149 0.684752 0.0396115
ltoes -7.41795 0 0
rfemur -47.0189 -4.29052 -2.89475
rtibia 52.3918 -0 0
rfoot -0.231704 5.62245 -0.0161921
rtoes -41.9441 0 0
lowerback 12.0377 1.19483 0.706928
upperback 5.77905 2.50099 6.95664
thorax -0.951762 1.46565 6.58525
lowerneck -4.20131 -16.2865 -6.51843
upperneck 12.5763 -21.9833 6.69892
head 5.97346 -10.5546 1.41455
lclavicle 7.53446e-14 4.72682e-14 -6.00897e-30
lhumerus -43.0957 -20.2278 107.463
lradius 59.4889 -0 0
lwrist 23.7608 0 0
lhand -22.2807 -5.24041 0.00121194
lfingers 7.12502 -0 0
lthumb 4.13773 24.6988 0.00114262
rclavicle 7.53446e-14 4.72682e-14 -6.00897e-30
rhumerus 13.4558 11.5384 -84.7587
rradius 138.166 -0 0
rwrist -50.6588 0 0
rhand -30.6618 -24.9902 0.0243144
rfingers 7.12502 -0 0
rthumb -3.95638 -54.9248 0.023178
545
root 7.51159 14.8447 -3.85652 -178.202 55.2053 178.128
lfemur -29.0312 -5.74915 -20.4201
ltibia 76.0813 -0 0
lfoot -35.5183 0.971643 0.0454617
ltoes -6.98265 0 0
rfemur -47.1334 -4.56431 -2.3704
rtibia 52.1504 -0 0
rfoot 0.0936337 5.58763 -0.0185837
rtoes -41.6216 0 0
lowerback 11.871 1.13685 0.61279
upperback 5.6679 2.39307 6.84428
thorax -0.962715 1.40416 6.53314
lowerneck -4.2375 -16.1974 -6.43806
upperneck 12.4972 -21.8626 6.65075
head 5.93359 -10.4994 1.40356
lclavicle 7.3084e-14 4.54066e-14 -6.89604e-30
lhumerus -43.0293 -20.1064 107.021
lradius 59.3544 -0 0
lwrist 23.7108 0 0
lhand -22.2494 -5.21328 0.00139085
lfingers 7.12502 -0 0
lthumb 4.16793 24.7253 0.0013113
rclavicle 7.3084e-14 4.54066e-14 -6.89604e-30
rhumerus 13.9315 11.7108 -84.4253
rradius 138.027 -0 0
rwrist -50.4937 0 0
rhand -30.5099 -24.8781 0.0279047
rfingers 7.12502 -0 0
rthumb -3.80974 -54.8142 0.0266004
546
root 7.49713 14.8984 -3.8467 -177.995 55.9086 178.21
lfemur -28.6105 -5.64696 -20.3857
ltibia 74.9843 -0 0
lfoot -35.4159 1.27557 0.0511315
ltoes -6.52151 0 0
rfemur -47.2576 -4.85319 -1.81412
rtibia 51.8947 -0 0
rfoot 0.438285 5.55074 -0.0209016
rtoes -41.2799 0 0
lowerback 11.6945 1.07515 0.51327
upperback 5.5504 2.2785 6.7255
thorax -0.974257 1.33901 6.47796
lowerneck -4.27568 -16.1029 -6.35301
upperneck 12.4133 -21.7349 6.59958
head 5.89136 -10.441 1.39187
lclavicle 7.06893e-14 4.34344e-14 -7.75562e-30
lhumerus -42.9602 -19.9773 106.553
lradius 59.2119 -0 0
lwrist 23.6579 0 0
lhand -22.2163 -5.18453 0.00156423
lfingers 7.12502 -0 0
lthumb 4.19992 24.7533 0.00147475
rclavicle 7.06893e-14 4.34344e-14 -7.75562e-30
rhumerus 14.4367 11.8905 -84.0704
rradius 137.88 -0 0
rwrist -50.3188 0 0
rhand -30.3491 -24.7593 0.0313839
rfingers 7.12502 -0 0
rthumb -3.65439 -54.6969 0.0299169
547
root 7.48194 14.9548 -3.83637 -177.77 56.647 178.304
lfemur -28.1688 -5.53992 -20.3488
ltibia 73.8323 -0 0
lfoot -35.3084 1.59475 0.0565009
ltoes -6.03725 0 0
rfemur -47.391 -5.15525 -1.22902
rtibia 51.6262 -0 0
rfoot 0.800219 5.51197 -0.0230967
rtoes -40.9211 0 0
lowerback 11.5092 1.01001 0.408946
upperback 5.42727 2.15793 6.60102
thorax -0.986309 1.27058 6.42002
lowerneck -4.3156 -16.0036 -6.26382
upperneck 12.3251 -21.6009 6.54567
head 5.84701 -10.3797 1.37955
lclavicle 6.81745e-14 4.13635e-14 -8.56957e-30
lhumerus -42.8889 -19.8412 106.062
lradius 59.0622 -0 0
lwrist 23.6023 0 0
lhand -22.1815 -5.15434 0.00172839
lfingers 7.12502 -0 0
lthumb 4.23352 24.7828 0.00162953
rclavicle 6.81745e-14 4.13635e-14 -8.56957e-30
rhumerus 14.9689 12.0758 -83.6958
rradius 137.725 -0 0
rwrist -50.1351 0 0
rhand -30.1801 -24.6345 0.0346785
rfingers 7.12502 -0 0
rthumb -3.49125 -54.5738 0.0330575
